PathFileType	4	(X/Y/Z)	Run_300 02
DataRate	CameraRate	NumFrames	NumMarkers	Units	OrigDataRate	OrigDataStartFrame	OrigNumFrames
100	100	4	42	mm	100	12	128
Frame#	Time	LASI			RASI			LPSI			RPSI			RTH1			RTH2			RTH3			LTH1			LTH2			LTH3			RTB1			RTB2			RTB3			LTB1			LTB2			LTB3			RCAL			RTOE			RMT5			LCAL			LTOE			LMT5			LACR			RACR			CLAV			C7			RUA1			RUA2			RUA3			RLEL			RMEL			LUA1			LUA2			LUA3			LLEL			LMEL			RFAsuperior			RFAradius			RFAulna			LFAsuperior			LFAradius			LFAulna			
		X1	Y1	Z1	X2	Y2	Z2	X3	Y3	Z3	X4	Y4	Z4	X5	Y5	Z5	X6	Y6	Z6	X7	Y7	Z7	X8	Y8	Z8	X9	Y9	Z9	X10	Y10	Z10	X11	Y11	Z11	X12	Y12	Z12	X13	Y13	Z13	X14	Y14	Z14	X15	Y15	Z15	X16	Y16	Z16	X17	Y17	Z17	X18	Y18	Z18	X19	Y19	Z19	X20	Y20	Z20	X21	Y21	Z21	X22	Y22	Z22	X23	Y23	Z23	X24	Y24	Z24	X25	Y25	Z25	X26	Y26	Z26	X27	Y27	Z27	X28	Y28	Z28	X29	Y29	Z29	X30	Y30	Z30	X31	Y31	Z31	X32	Y32	Z32	X33	Y33	Z33	X34	Y34	Z34	X35	Y35	Z35	X36	Y36	Z36	X37	Y37	Z37	X38	Y38	Z38	X39	Y39	Z39	X40	Y40	Z40	X41	Y41	Z41	X42	Y42	Z42	

1	0.43	834.970334	1031.19672	-463.45606	827.156325	1039.400294	-207.044134	660.684952	1060.764891	-387.228435	661.5742320000001	1055.789739	-291.04153	767.969138	838.452488	-156.760665	879.42129	754.043019	-164.271097	851.418571	625.370029	-201.743039	718.70294	838.446969	-502.282426	753.782807	699.255462	-476.253206	662.58973	602.2981150000001	-464.076606	976.355816	412.177933	-277.401119	966.477212	352.400981	-215.353087	995.531329	246.301612	-290.232101	537.640588	402.180486	-402.208621	441.662037	399.04329	-467.150147	397.163536	329.295592	-408.136413	916.581798	90.716239	-300.018321	1137.404271	132.367392	-311.294909	1094.067378	95.238141	-224.303077	249.398233	377.270744	-414.460519	262.178832	154.331313	-367.550026	220.886192	186.543744	-456.731382	837.922265	1501.721779	-507.729236	783.30516	1522.361656	-185.369784	858.326739	1451.643354	-304.846876	744.619017	1527.908674	-356.77298	697.957473	1469.970779	-118.276754	629.431684	1415.196037	-169.375152	624.758745	1361.938869	-112.221773	555.207937	1274.411346	-100.175018	568.753883	1263.456917	-180.929668	816.706542	1414.864655	-589.678102	759.900611	1334.058637	-580.836979	790.019728	1273.291649	-631.246456	810.24688	1188.642794	-653.15091	761.980323	1175.09372	-592.033007	633.529357	1203.954366	-67.106965	762.858447	1107.937078	-66.288893	706.056961	1062.825035	-70.847987	905.521595	1184.916987	-596.182944	1000.527733	1188.89208	-465.819126	1016.417411	1125.610938	-495.527147	
2	0.44	833.7388989999999	1026.278398	-464.874049	826.513246	1034.18759	-206.591212	659.649089	1051.556739	-387.093074	660.328889	1047.631528	-292.284716	768.407968	830.474449	-159.099388	882.721445	750.799583	-165.210356	853.094388	620.615085	-202.814486	726.675718	830.974416	-502.210625	762.276902	691.982484	-476.288539	674.860076	592.619626	-464.679434	971.15236	403.356528	-278.973451	959.9576929999999	344.947239	-218.43321	984.074885	237.457732	-292.549823	549.071851	396.986323	-402.504717	453.547155	400.057008	-467.884761	404.210022	334.09175	-409.06286	898.279972	91.955969	-302.817118	1120.368585	113.803873	-312.692166	1073.240218	83.022694	-225.501088	259.534704	391.450261	-416.190686	259.89094	167.966128	-370.765881	220.236722	203.099082	-459.356313	838.230636	1494.977412	-506.505614	786.447527	1515.039472	-183.933499	859.3136009999999	1444.347797	-304.401405	745.697215	1522.061639	-354.608038	701.9954320000001	1462.228276	-115.221143	632.713847	1407.062784	-165.093536	629.591083	1353.382717	-108.153617	560.640252	1265.557941	-95.389793	573.20403	1254.43993	-176.278315	816.082221	1408.944623	-588.98965	758.3540400000001	1328.908747	-580.5300109999999	787.6545180000001	1268.033244	-631.4722389999999	806.570578	1183.185218	-653.928145	758.067438	1170.114275	-592.636039	640.434367	1196.351603	-63.21011	770.9404929999999	1102.324251	-63.692919	714.976734	1056.273385	-67.66851800000001	902.157233	1176.130258	-597.835158	997.7572730000001	1176.362184	-467.20046	1011.498846	1113.015774	-497.597944	
3	0.45	832.941011	1020.07477	-466.440339	825.461267	1027.861967	-206.006354	659.4547710000001	1040.945558	-387.088588	658.639006	1038.499152	-293.155165	769.173934	822.702035	-162.009274	885.607703	747.26921	-168.398058	853.222701	614.6597420000001	-204.48862	732.959905	822.370125	-503.414949	770.352208	684.222921	-477.533895	687.857586	582.602092	-466.511843	966.489187	394.326896	-281.953208	951.497217	335.892141	-222.3148	969.384895	227.249065	-292.973639	562.169454	391.965569	-403.234631	468.308731	400.602459	-469.656536	414.073264	338.640856	-409.6517	875.8791670000001	93.86723600000001	-305.616307	1098.548899	95.152658	-313.318541	1048.835765	70.872421	-226.353464	272.213499	404.103811	-416.742834	261.90197	180.460123	-374.192858	224.68051	218.700025	-462.916595	838.489301	1487.122677	-505.300236	789.603442	1506.829971	-182.564621	860.470584	1435.859393	-304.138947	746.653418	1515.11437	-352.696553	706.225046	1453.510225	-112.086453	635.898896	1397.973699	-160.364231	634.809284	1343.819394	-103.549036	566.636655	1255.602262	-89.828603	577.8935770000001	1244.370757	-170.846821	815.358223	1401.754989	-588.8746149999999	756.683968	1322.643272	-580.603538	784.983475	1261.579305	-632.096435	802.330521	1176.68692	-655.250494	753.233625	1164.18414	-593.076731	647.972398	1187.814624	-58.818196	779.679044	1095.975318	-60.957708	724.733062	1048.910475	-64.17132700000001	898.131827	1166.086493	-600.068155	994.507307	1161.90966	-469.464687	1006.131912	1098.734426	-500.926502	
4	0.46	832.432912	1012.71834	-467.81251	823.856013	1020.474371	-205.314635	659.422806	1029.27099	-387.538859	656.373294	1028.163325	-293.643181	769.6570809999999	816.474101	-163.98168	886.104838	742.751535	-171.839723	852.3509299999999	608.293777	-206.560961	738.063051	812.53164	-505.190524	778.167851	675.911214	-479.424273	701.201803	571.875302	-468.729452	962.634468	386.792729	-286.06222	942.5539199999999	327.625071	-226.378156	953.084334	217.08019	-292.063749	576.791319	387.629553	-403.999754	485.221122	400.843841	-472.598076	426.389737	342.413403	-409.993156	851.071422	95.575469	-307.714686	1074.19294	81.04974900000001	-313.692998	1022.917484	62.196616	-226.83374	286.752911	414.789965	-415.903554	267.849214	190.89776	-377.580963	233.572599	232.295947	-466.900561	838.508427	1478.563689	-504.386663	792.536087	1498.183968	-181.002729	861.850864	1426.528663	-303.987001	747.316523	1507.220962	-350.982177	710.61931	1443.698472	-108.816787	638.9387840000001	1387.912678	-155.122481	640.32528	1333.24364	-98.453585	573.250626	1244.668191	-83.563568	583.040395	1233.423488	-164.7717	814.024177	1393.471183	-589.280617	754.596504	1315.281329	-580.995393	781.793839	1254.004139	-632.904845	797.392739	1169.358214	-656.894946	747.533694	1157.503409	-593.333787	656.122795	1178.429925	-53.946735	789.146029	1088.976871	-58.085831	735.124267	1040.934062	-60.303322	893.228958	1155.073881	-602.219307	990.619873	1145.700392	-472.350961	1000.201382	1083.017624	-505.504836	
